<?xml version="1.0" encoding="UTF-8"?>
<svg xmlns="http://www.w3.org/2000/svg" id="Layer_1" data-name="Layer 1" viewBox="0 0 400 400">
    <defs>
        <style>.cls-1{fill:#e6879b;}</style>
    </defs>
    <path class="cls-1"
        d="M265.05,133.54a29.82,29.82,0,1,0-29.82-29.82A29.85,29.85,0,0,0,265.05,133.54Zm0-48.64a18.82,18.82,0,1,1-18.82,18.82A18.84,18.84,0,0,1,265.05,84.9Z"></path>
    <path class="cls-1"
        d="M246.66,177.44a24.71,24.71,0,0,0-24.47-24.88H179.26a24.7,24.7,0,0,0-24.46,24.88v59.15a24.77,24.77,0,0,0,16.11,23.08v46.21c0,11.15,7.39,20.22,16.48,20.22h26.74c9.07,0,16.45-9.07,16.45-20.22V259.66a24.74,24.74,0,0,0,16.08-23.07Zm-11,59.15A13.61,13.61,0,0,1,224.24,250l-4.66.72v55.16c0,5.27-2.88,9.22-5.45,9.22H187.39c-2.59,0-5.48-4-5.48-9.22V250.71l-4.67-.71a13.62,13.62,0,0,1-11.44-13.41V177.44a13.69,13.69,0,0,1,13.46-13.88h42.93a13.7,13.7,0,0,1,13.47,13.88Z"></path>
    <path class="cls-1"
        d="M200.76,147.9a29.83,29.83,0,1,0-29.82-29.83A29.86,29.86,0,0,0,200.76,147.9Zm0-48.65a18.83,18.83,0,1,1-18.82,18.82A18.84,18.84,0,0,1,200.76,99.25Z"></path>
    <path class="cls-1"
        d="M286.51,138.27H243.58a5.5,5.5,0,0,0,0,11h42.93a14,14,0,0,1,13.7,13.82v59.15a14,14,0,0,1-11.82,13.41l-4.67.72v55.16c0,5.31-2.78,9.28-5.27,9.28H251.71a5.5,5.5,0,1,0,0,11h26.74c9.12,0,16.27-8.91,16.27-20.28V245.34a24.82,24.82,0,0,0,16.49-23.1V163.07A24.83,24.83,0,0,0,286.51,138.27Z"></path>
    <path class="cls-1"
        d="M135,133.54a29.82,29.82,0,1,0-29.82-29.82A29.85,29.85,0,0,0,135,133.54Zm0-48.64a18.82,18.82,0,1,1-18.82,18.82A18.84,18.84,0,0,1,135,84.9Z"></path>
    <path class="cls-1"
        d="M148.29,300.81H121.55c-2.49,0-5.27-4-5.27-9.28V236.37l-4.67-.72a14,14,0,0,1-11.82-13.41V163.1a14,14,0,0,1,13.7-13.83h42.93a5.5,5.5,0,0,0,0-11H113.49a24.84,24.84,0,0,0-24.7,24.82v59.15a24.82,24.82,0,0,0,16.49,23.1v46.19c0,11.37,7.15,20.28,16.27,20.28h26.74a5.5,5.5,0,1,0,0-11Z"></path>
</svg>